<svg xmlns:xlink="http://www.w3.org/1999/xlink" data-v-15251c40="" xmlns="http://www.w3.org/2000/svg" version="1.0" width="2245" height="2347" viewBox="0 0 2245.000000 2347.000000" preserveAspectRatio="xMidYMid meet"><g data-v-15251c40="" transform="translate(0.000000,2347.000000) scale(0.100000,-0.100000)" fill="#FFFFFF" stroke="none"><path data-v-15251c40="" d="M10334 23410 c-25 -74 -25 -232 0 -315 59 -198 198 -345 391 -411 110 -38 265 -40 370 -6 100 34 170 77 247 152 l67 65 59 -60 c337 -340 899 -183 1018 284 21 84 16 248 -10 306 l-18 40 -18 -52 c-69 -197 -214 -334 -401 -378 -74 -17 -213 -19 -279 -4 -89 20 -172 69 -251 148 -42 42 -81 85 -87 96 -11 19 -13 18 -38 -15 -82 -107 -199 -191 -313 -224 -118 -35 -317 -11 -434 51 -29 15 -82 57 -118 93 -62 61 -105 133 -156 260 -9 23 -11 22 -29 -30z" fill="#FFFFFF"></path> <path data-v-15251c40="" d="M11351 22656 c-93 -115 -245 -241 -363 -302 -85 -43 -78 69 -78 -1189 0 -1248 -1 -1218 75 -3070 30 -731 53 -1331 51 -1332 -4 -5 -174 125 -256 196 -668 574 -1125 1318 -1331 2166 -212 875 -156 1713 170 2530 69 172 209 456 311 629 45 76 80 140 77 142 -7 8 -134 -106 -232 -207 -207 -214 -403 -489 -595 -833 -392 -703 -549 -1560 -430 -2348 103 -676 384 -1327 797 -1843 107 -134 333 -367 469 -485 186 -161 422 -328 633 -450 l92 -53 -33 -14 c-46 -19 -273 -87 -393 -117 -132 -33 -346 -72 -495 -91 -147 -18 -503 -38 -593 -33 -37 1 -63 0 -59 -3 22 -18 327 -93 503 -123 242 -42 350 -51 634 -50 278 0 430 12 658 53 56 10 105 17 110 14 4 -2 7 -28 7 -56 1 -30 8 -65 18 -83 9 -16 82 -119 162 -227 137 -187 145 -196 161 -180 36 38 291 396 305 428 8 19 14 55 14 81 0 43 1 46 23 40 42 -10 270 -45 382 -58 168 -19 618 -16 790 6 185 23 411 67 570 112 161 45 172 51 86 46 -92 -5 -458 15 -601 34 -271 34 -524 90 -771 170 l-142 46 34 21 c19 11 90 56 159 100 744 470 1266 1079 1553 1812 265 675 343 1453 217 2155 -109 609 -386 1186 -817 1703 -114 137 -372 411 -403 427 -10 5 14 -43 53 -108 270 -448 463 -950 551 -1432 51 -281 61 -394 61 -730 0 -388 -22 -595 -101 -950 -206 -931 -710 -1731 -1484 -2352 -61 -48 -113 -88 -117 -88 -7 0 -5 58 42 1215 19 468 43 985 52 1150 13 246 17 558 20 1743 l4 1442 -31 18 c-157 86 -344 241 -425 351 -16 22 -33 41 -36 41 -3 0 -29 -29 -58 -64z" fill="#FFFFFF"></path> <path data-v-15251c40="" d="M9615 22525 c-5 -2 -89 -29 -185 -60 -305 -100 -523 -205 -785 -380 -179 -119 -280 -201 -434 -350 -484 -470 -817 -1097 -925 -1745 -41 -244 -49 -363 -43 -625 9 -402 73 -724 214 -1080 201 -509 507 -934 922 -1282 112 -93 409 -303 430 -303 4 0 -38 70 -95 155 -402 606 -631 1223 -706 1900 -20 180 -17 701 5 887 134 1130 623 2039 1495 2777 104 89 132 114 120 110 -2 0 -7 -2 -13 -4z" fill="#FFFFFF"></path> <path data-v-15251c40="" d="M13196 22512 c5 -5 68 -58 139 -118 420 -352 777 -795 1028 -1274 376 -717 537 -1634 432 -2460 -57 -449 -191 -883 -402 -1304 -106 -211 -182 -338 -378 -631 l-20 -30 50 29 c28 16 95 60 150 97 560 379 996 956 1217 1609 223 658 222 1357 -3 2032 -203 612 -580 1134 -1105 1529 -302 227 -637 397 -974 494 -125 36 -151 41 -134 27z" fill="#FFFFFF"></path> <path data-v-15251c40="" d="M14661 15114 c-19 -16 -33 -39 -37 -62 -6 -32 -4 -39 26 -63 l32 -27 -22 -45 c-13 -25 -47 -69 -76 -98 -30 -29 -54 -57 -54 -61 0 -4 10 -8 22 -8 32 0 132 110 168 184 17 34 33 82 36 108 6 41 4 49 -19 72 -32 32 -38 32 -76 0z m54 -64 c0 -18 -6 -26 -21 -28 -26 -4 -40 24 -23 45 18 21 44 11 44 -17z" fill="#FFFFFF"></path> <path data-v-15251c40="" d="M12485 14928 c-73 -147 -85 -192 -115 -433 -11 -82 -32 -193 -46 -245 -38 -138 -39 -140 -21 -140 25 0 65 56 118 166 58 117 88 246 114 475 8 75 21 171 30 214 14 76 13 95 -5 95 -5 0 -39 -60 -75 -132z" fill="#FFFFFF"></path> <path data-v-15251c40="" d="M9861 15002 c-11 -16 -43 -78 -71 -139 -53 -117 -68 -182 -105 -455 -8 -64 -26 -155 -40 -203 -14 -47 -25 -94 -25 -105 0 -36 30 -21 64 33 103 161 144 302 176 597 6 58 17 140 25 184 23 123 17 145 -24 88z" fill="#FFFFFF"></path> <path data-v-15251c40="" d="M15106 14956 c-21 -8 -51 -27 -67 -42 -44 -43 -101 -130 -97 -149 2 -14 12 -10 53 24 27 22 65 44 84 47 35 7 238 -23 246 -36 3 -4 -21 -18 -53 -31 -182 -72 -267 -143 -347 -290 -27 -50 -73 -119 -102 -153 -29 -33 -71 -89 -95 -123 -24 -34 -46 -63 -50 -63 -4 0 -15 14 -23 30 -19 37 -70 70 -108 70 -63 0 -95 -24 -216 -170 -39 -46 -93 -90 -113 -90 -3 0 -9 19 -13 43 -17 106 -119 180 -192 139 -17 -9 -43 -31 -57 -49 -36 -43 -107 -197 -113 -244 -5 -34 -2 -42 25 -68 37 -33 109 -54 158 -45 42 8 43 -1 5 -53 -39 -53 -165 -146 -333 -246 -184 -108 -184 -114 2 -67 215 54 275 77 309 115 46 53 125 174 150 230 12 27 52 81 89 120 37 40 90 97 119 128 47 52 55 57 93 57 35 0 48 -6 77 -35 39 -39 39 -41 17 -227 -4 -40 -3 -58 5 -58 16 0 37 37 75 136 72 189 126 268 218 315 36 19 51 20 108 14 115 -13 120 -12 166 38 45 50 61 99 45 140 -5 14 -37 55 -71 91 -37 39 -60 72 -57 80 12 31 79 67 228 124 85 33 174 71 196 85 86 54 119 130 71 161 -34 21 -210 57 -308 62 -59 3 -97 0 -124 -10z" fill="#FFFFFF"></path> <path data-v-15251c40="" d="M11316 14838 c-51 -95 -100 -233 -115 -328 -6 -36 -11 -148 -11 -250 0 -317 -22 -426 -106 -519 -58 -64 -131 -101 -201 -101 -57 0 -61 4 -38 37 80 114 132 309 150 563 3 47 13 157 21 245 8 88 14 185 12 215 l-3 55 -27 -57 c-39 -81 -104 -280 -123 -373 -9 -44 -20 -170 -25 -280 -10 -232 -19 -285 -63 -351 -18 -26 -40 -59 -49 -73 -10 -14 -18 -30 -18 -35 0 -13 92 -94 127 -111 133 -64 302 79 394 336 l31 86 36 -19 c46 -23 106 -23 158 1 24 11 80 58 131 110 l89 91 69 0 69 0 45 48 c26 27 57 52 72 55 64 16 155 155 161 246 4 62 -16 63 -42 2 -27 -62 -52 -85 -83 -77 -20 5 -26 -1 -45 -39 -28 -58 -68 -79 -131 -70 -45 6 -50 4 -111 -41 -79 -58 -117 -74 -175 -74 -94 0 -168 60 -181 147 -8 57 12 381 31 501 28 168 17 181 -49 60z" fill="#FFFFFF"></path> <path data-v-15251c40="" d="M8918 14843 c-19 -21 -68 -126 -121 -258 -28 -71 -39 -119 -52 -225 -20 -169 -45 -295 -90 -450 -34 -114 -36 -140 -15 -140 32 0 175 274 209 400 21 78 94 626 89 668 -3 24 -3 24 -20 5z" fill="#FFFFFF"></path> <path data-v-15251c40="" d="M10483 14499 c-20 -7 -143 -231 -143 -260 0 -7 12 -23 27 -35 l27 -21 -111 -109 c-133 -131 -203 -232 -239 -350 -30 -96 -27 -157 9 -200 13 -14 58 -45 102 -67 72 -38 80 -45 83 -74 7 -73 -111 -226 -222 -287 -96 -54 -165 -70 -296 -71 -109 0 -118 2 -168 30 -63 34 -97 72 -128 140 -53 119 -38 246 57 473 102 243 119 291 118 335 l0 42 -17 -24 c-52 -72 -224 -478 -263 -616 -29 -109 -37 -304 -15 -398 31 -133 97 -227 194 -274 48 -23 68 -27 141 -27 100 0 205 28 290 77 70 39 192 155 244 231 143 211 236 554 179 666 -12 24 -36 44 -86 71 -37 20 -77 46 -88 57 l-21 20 21 34 c50 80 147 155 336 259 101 55 151 101 187 171 29 57 25 98 -13 136 -51 48 -162 87 -205 71z" fill="#FFFFFF"></path> <path data-v-15251c40="" d="M13245 14389 c-203 -105 -425 -337 -530 -553 -53 -111 -79 -204 -72 -269 6 -69 48 -108 152 -144 73 -25 80 -31 83 -56 5 -45 -46 -134 -119 -208 -117 -118 -273 -177 -447 -167 -108 6 -177 34 -231 93 -102 111 -80 259 102 655 41 91 81 181 88 201 13 39 7 73 -14 67 -15 -5 -83 -133 -182 -346 -125 -266 -165 -406 -168 -577 -3 -186 58 -309 187 -375 66 -33 73 -35 175 -35 180 0 301 54 436 192 147 151 244 372 275 629 12 100 4 162 -27 196 -10 11 -46 33 -80 48 -83 38 -95 62 -60 122 32 55 169 186 231 223 80 47 122 58 155 41 26 -14 30 -14 49 7 27 29 75 129 97 199 15 47 16 60 5 72 -18 23 -37 20 -105 -15z" fill="#FFFFFF"></path> <path data-v-15251c40="" d="M9413 14284 c-70 -100 -80 -109 -178 -161 -141 -76 -164 -101 -250 -278 -41 -85 -87 -163 -104 -180 -17 -16 -109 -82 -204 -145 -217 -145 -230 -176 -60 -151 126 18 204 45 254 90 44 39 61 69 160 289 40 90 80 128 191 180 112 52 142 91 199 261 30 89 35 121 19 121 -5 0 -17 -12 -27 -26z" fill="#FFFFFF"></path> <path data-v-15251c40="" d="M13633 14178 c-6 -7 -23 -51 -38 -98 -113 -343 -150 -398 -397 -584 -94 -70 -128 -110 -110 -128 28 -28 296 65 360 125 34 32 84 121 119 212 30 77 84 299 98 398 9 70 -7 107 -32 75z" fill="#FFFFFF"></path> <path data-v-15251c40="" d="M8425 14075 c-82 -152 -95 -203 -103 -420 -8 -185 -9 -192 -39 -258 -65 -138 -190 -268 -317 -330 -107 -53 -195 -70 -332 -65 -102 4 -118 7 -178 37 -111 54 -156 132 -156 268 0 90 19 148 107 338 63 134 89 225 65 225 -13 0 -94 -135 -163 -272 -212 -422 -173 -782 97 -889 84 -33 246 -33 354 0 155 47 287 145 411 304 174 224 262 475 294 847 9 96 20 197 24 224 9 50 6 76 -9 76 -5 0 -29 -38 -55 -85z" fill="#FFFFFF"></path> <path data-v-15251c40="" d="M15227 13983 c-49 -81 -107 -200 -107 -218 0 -16 145 -135 165 -135 25 0 102 96 124 153 25 69 25 72 3 119 -15 32 -125 138 -144 138 -4 0 -22 -26 -41 -57z" fill="#FFFFFF"></path> <path data-v-15251c40="" d="M7823 13813 c-47 -74 -105 -200 -101 -221 4 -20 137 -131 158 -132 24 0 84 68 115 129 22 45 26 64 22 105 -4 48 -9 55 -73 114 -37 34 -72 62 -76 62 -5 0 -25 -26 -45 -57z" fill="#FFFFFF"></path> <path data-v-15251c40="" d="M8869 13128 c-50 -78 -117 -220 -111 -236 5 -15 150 -132 162 -132 18 0 92 87 115 135 46 98 30 150 -71 234 l-62 51 -33 -52z" fill="#FFFFFF"></path> <path data-v-15251c40="" d="M8560 13123 c-46 -72 -112 -214 -106 -228 5 -15 116 -109 147 -126 18 -9 27 -5 69 39 30 31 55 71 69 106 25 67 25 76 7 120 -13 32 -126 136 -147 136 -5 0 -23 -21 -39 -47z" fill="#FFFFFF"></path> <path data-v-15251c40="" d="M13747 12753 c-90 -144 -209 -396 -205 -433 2 -17 34 -51 108 -113 160 -134 162 -134 241 -51 55 60 95 126 126 211 42 115 25 194 -60 282 -53 54 -162 141 -178 141 -5 0 -19 -17 -32 -37z" fill="#FFFFFF"></path> <path data-v-15251c40="" d="M14222 12688 c-81 -137 -175 -346 -168 -373 5 -19 164 -159 235 -207 30 -21 46 -15 104 41 61 58 99 118 132 204 50 135 24 233 -88 330 -77 66 -133 107 -145 107 -6 0 -37 -46 -70 -102z" fill="#FFFFFF"></path> <path data-v-15251c40="" d="M16109 12322 c-42 -66 -120 -219 -174 -339 -26 -59 -27 -64 -11 -87 25 -38 235 -206 257 -206 38 0 135 105 178 193 65 132 72 209 27 296 -18 33 -126 137 -188 179 l-46 32 -43 -68z" fill="#FFFFFF"></path> <path data-v-15251c40="" d="M15575 12285 c-62 -104 -175 -341 -175 -365 0 -32 232 -230 269 -230 42 0 128 96 179 199 94 194 64 298 -126 441 -37 27 -72 50 -79 50 -7 0 -38 -43 -68 -95z" fill="#FFFFFF"></path> <path data-v-15251c40="" d="M8572 11995 c-7 -16 -53 -133 -101 -260 l-89 -230 -56 -510 c-112 -1011 -105 -1253 43 -1487 128 -202 354 -322 726 -385 155 -26 796 -26 987 0 494 67 1011 219 1443 426 368 176 747 446 941 672 99 115 115 121 164 59 36 -46 121 -100 200 -126 163 -55 487 14 810 175 169 84 251 142 382 269 134 131 184 196 251 325 91 177 119 283 120 457 1 100 -2 124 -25 182 -94 248 -274 359 -389 238 -68 -71 -219 -402 -219 -478 0 -44 36 -91 87 -114 42 -19 54 -20 122 -10 87 12 109 4 137 -50 22 -42 29 -136 15 -181 -19 -55 -84 -150 -149 -215 -56 -56 -288 -220 -297 -210 -3 2 9 26 25 52 102 161 146 325 116 430 -30 101 -114 150 -221 126 -136 -31 -242 -122 -476 -411 l-160 -199 -45 0 c-53 0 -107 26 -149 70 -71 76 -108 62 -325 -129 -216 -189 -453 -339 -729 -461 -282 -124 -713 -254 -1076 -324 -675 -130 -1428 -87 -1824 105 -130 64 -227 155 -283 266 -54 107 -62 175 -55 468 6 249 27 506 88 1053 31 287 36 465 11 407z m4937 -1116 c27 -5 70 -23 95 -39 64 -41 63 -68 -7 -136 -67 -64 -226 -146 -329 -169 -41 -9 -103 -15 -140 -13 l-67 3 70 90 c117 150 209 237 277 261 46 16 41 16 101 3z" fill="#FFFFFF"></path> <path data-v-15251c40="" d="M12140 11903 c-47 -74 -200 -387 -200 -409 0 -36 227 -234 269 -234 53 0 161 138 207 266 41 111 27 194 -45 276 -37 43 -172 148 -189 148 -7 0 -26 -21 -42 -47z" fill="#FFFFFF"></path> <path data-v-15251c40="" d="M15895 11265 c-44 -22 -91 -80 -127 -154 -45 -97 -104 -242 -123 -306 -16 -55 -15 -58 6 -101 41 -86 121 -121 239 -104 80 11 101 0 126 -66 15 -40 16 -53 5 -91 -15 -60 -64 -126 -123 -170 -48 -35 -68 -36 -68 -5 -1 55 -78 160 -142 193 -159 81 -264 -12 -403 -361 -46 -115 -53 -165 -31 -209 40 -77 179 -133 287 -115 69 12 70 9 30 -62 -60 -105 -263 -264 -580 -458 -117 -71 -210 -134 -208 -140 6 -17 79 -8 227 29 147 37 345 103 427 142 57 27 91 65 203 232 64 96 133 234 164 329 12 36 37 75 78 120 83 93 208 283 272 416 114 235 146 395 111 559 -21 100 -57 170 -121 237 -83 87 -179 120 -249 85z" fill="#FFFFFF"></path> <path data-v-15251c40="" d="M14969 10978 c-7 -13 -14 -55 -17 -94 -7 -108 24 -154 104 -154 31 0 44 7 75 41 l38 41 26 -31 c41 -48 87 -38 135 29 33 46 48 180 20 180 -4 0 -15 -18 -25 -41 -10 -22 -27 -45 -38 -50 -29 -16 -65 -2 -82 31 -9 17 -19 30 -24 30 -5 0 -22 -15 -39 -34 -38 -44 -68 -59 -98 -52 -24 6 -27 13 -39 89 -7 42 -19 47 -36 15z" fill="#FFFFFF"></path> <path data-v-15251c40="" d="M7812 10723 c-65 -32 -212 -202 -212 -245 0 -8 14 -24 30 -36 17 -13 30 -28 29 -35 0 -7 -28 -34 -61 -62 -74 -61 -86 -78 -69 -98 10 -13 24 -6 98 50 48 36 149 96 229 136 89 44 146 79 150 90 8 27 1 29 -39 12 -78 -32 -201 -8 -213 42 -9 34 0 48 41 67 38 19 51 16 98 -16 16 -11 21 -9 38 11 25 31 24 47 -6 76 -28 29 -66 32 -113 8z" fill="#FFFFFF"></path> <path data-v-15251c40="" d="M14556 10351 c-26 -29 -236 -506 -236 -537 0 -2 11 -9 25 -16 l25 -13 -37 -60 c-55 -93 -122 -247 -134 -312 -23 -122 5 -236 69 -279 68 -46 189 -35 278 26 83 58 203 231 263 381 64 159 76 220 76 389 0 150 -1 157 -28 213 -37 75 -106 144 -188 190 -75 42 -89 44 -113 18z m-37 -641 c88 -44 131 -100 131 -168 0 -50 -31 -84 -106 -119 -104 -47 -197 -17 -211 70 -4 29 1 50 25 100 36 72 87 137 108 137 8 0 32 -9 53 -20z" fill="#FFFFFF"></path> <path data-v-15251c40="" d="M8018 10297 c-9 -7 -39 -47 -68 -90 -81 -122 -76 -120 -178 -112 -50 4 -98 3 -112 -3 -14 -5 -77 -51 -140 -102 -63 -51 -131 -99 -150 -108 -23 -10 -66 -15 -125 -15 -74 0 -102 5 -158 27 -78 30 -133 33 -221 10 -161 -41 -354 -170 -524 -349 -211 -223 -196 -297 39 -177 107 54 116 57 198 60 68 3 108 -2 190 -23 180 -45 326 -33 422 37 24 17 103 91 175 164 76 76 155 145 185 163 49 28 62 31 145 31 85 0 94 2 132 30 75 54 139 161 192 319 40 118 39 171 -2 138z" fill="#FFFFFF"></path> <path data-v-15251c40="" d="M6711 9058 c-85 -136 -221 -409 -221 -446 0 -32 232 -232 268 -232 50 0 155 131 203 254 63 159 23 259 -158 393 -40 29 -73 53 -75 53 -2 0 -10 -10 -17 -22z" fill="#FFFFFF"></path> <path data-v-15251c40="" d="M7199 9018 c-44 -69 -184 -348 -194 -389 -4 -17 0 -33 14 -51 33 -42 233 -198 254 -198 10 0 45 27 78 59 116 117 176 297 135 405 -18 47 -117 149 -198 205 l-48 32 -41 -63z" fill="#FFFFFF"></path> <path data-v-15251c40="" d="M6675 7771 c-42 -26 -135 -126 -241 -256 -232 -287 -670 -737 -1444 -1483 -352 -339 -681 -675 -815 -832 -96 -113 -199 -316 -267 -526 -17 -54 -49 -126 -70 -160 -45 -72 -105 -200 -141 -300 -22 -62 -24 -74 -12 -91 8 -11 65 -42 127 -69 132 -57 202 -117 245 -210 50 -109 15 -234 -92 -332 -74 -68 -121 -82 -187 -54 l-48 20 -35 -58 c-50 -82 -123 -145 -185 -160 -45 -11 -54 -10 -93 9 -24 12 -46 21 -49 21 -4 0 -21 -26 -39 -57 -44 -79 -75 -111 -134 -139 -69 -33 -134 -32 -174 2 l-30 25 -37 -41 c-44 -48 -184 -143 -234 -158 -19 -6 -51 -13 -71 -16 l-36 -6 -6 92 c-7 115 -31 181 -99 272 -86 115 -181 166 -306 166 -58 0 -75 -4 -113 -28 -52 -34 -119 -109 -182 -207 -81 -127 -237 -516 -237 -593 0 -16 7 -49 16 -75 42 -123 242 -216 426 -197 46 5 91 12 101 15 27 11 21 -29 -15 -99 -42 -81 -240 -278 -367 -366 -51 -36 -117 -83 -145 -106 -84 -67 -252 -176 -401 -259 -77 -43 -171 -99 -210 -125 -38 -26 -82 -54 -97 -64 -44 -26 -36 -46 17 -46 73 0 583 131 755 194 330 121 325 116 567 496 33 52 74 120 91 150 33 61 138 304 148 344 8 32 39 56 169 131 142 82 177 95 250 95 79 0 126 17 217 78 87 58 165 92 210 92 43 0 118 36 193 92 34 26 84 52 115 61 144 42 271 169 405 407 107 188 154 342 162 535 5 113 3 140 -16 208 -25 93 -54 153 -109 226 -42 55 -146 138 -219 174 l-41 20 60 39 c34 22 106 85 162 141 102 103 195 190 856 799 452 416 756 723 1171 1179 269 295 466 608 553 877 54 167 50 197 -19 153z" fill="#FFFFFF"></path> <path data-v-15251c40="" d="M7793 6538 c-708 -885 -1026 -1270 -1319 -1596 l-89 -99 -3 71 c-5 101 14 359 48 661 40 346 39 366 -8 351 -22 -7 -18 1 -190 -381 -76 -169 -143 -333 -153 -375 -11 -45 -23 -147 -29 -255 -14 -254 -30 -1119 -30 -1635 0 -611 -19 -870 -84 -1159 -118 -519 -404 -933 -798 -1149 -213 -118 -522 -183 -787 -168 -444 26 -719 208 -806 531 -26 95 -30 271 -10 399 33 212 91 376 275 782 105 231 120 270 111 291 -17 37 -53 30 -98 -21 -69 -80 -252 -445 -358 -716 -276 -707 -302 -1268 -77 -1645 136 -228 313 -351 579 -401 113 -21 428 -15 543 11 578 130 991 517 1365 1280 155 317 238 576 325 1015 69 348 102 639 120 1059 5 129 11 236 13 238 2 2 28 -1 57 -7 229 -43 423 44 559 250 66 101 158 295 186 395 62 215 72 445 25 553 -37 85 -149 168 -252 187 -44 8 -46 15 -17 41 67 59 785 943 1018 1253 271 360 328 445 350 517 60 203 94 384 73 384 -5 0 -247 -298 -539 -662z m-961 -1976 c58 -26 124 -84 149 -134 19 -38 19 -38 0 -77 -60 -116 -205 -182 -357 -160 -104 15 -170 53 -215 125 -19 31 -20 40 -11 73 22 72 109 150 210 188 50 18 164 10 224 -15z" fill="#FFFFFF"></path> <path data-v-15251c40="" d="M2578 5918 c-47 -79 -129 -237 -183 -353 l-97 -210 19 -35 c18 -34 234 -222 340 -297 49 -33 54 -35 83 -23 40 17 148 124 196 196 43 66 107 209 125 279 6 25 9 80 7 123 -8 126 -58 204 -218 336 -82 69 -164 126 -178 126 -5 0 -47 -64 -94 -142z" fill="#FFFFFF"></path> <path data-v-15251c40="" d="M19756 5487 c-94 -156 -276 -537 -276 -576 0 -32 70 -100 249 -243 97 -78 142 -108 162 -108 37 0 124 72 184 152 57 77 116 191 151 295 33 99 30 192 -11 280 -39 85 -188 226 -347 327 l-26 17 -86 -144z" fill="#FFFFFF"></path> <path data-v-15251c40="" d="M12235 5417 c-86 -145 -275 -536 -275 -570 0 -33 36 -71 167 -179 183 -150 222 -178 246 -178 55 0 194 149 261 280 105 203 121 325 57 454 -23 48 -54 86 -122 150 -75 72 -225 186 -243 186 -3 0 -44 -64 -91 -143z" fill="#FFFFFF"></path> <path data-v-15251c40="" d="M13265 5268 c-7 -18 -45 -107 -85 -198 -116 -267 -221 -540 -231 -599 -23 -151 -143 -1137 -174 -1441 -50 -494 -47 -655 20 -909 32 -121 75 -200 142 -261 101 -92 255 -122 358 -68 99 52 189 170 290 382 74 155 124 298 172 496 45 187 55 255 43 301 -18 67 -71 55 -85 -19 -10 -55 -79 -234 -108 -279 -14 -22 -40 -52 -58 -68 -32 -26 -37 -27 -107 -22 -183 14 -327 158 -363 363 -20 116 -6 513 30 831 24 211 178 1323 206 1491 5 28 3 32 -15 32 -14 0 -25 -10 -35 -32z" fill="#FFFFFF"></path> <path data-v-15251c40="" d="M18033 5262 c-13 -8 -99 -204 -235 -537 l-90 -220 -38 -305 c-47 -366 -95 -783 -151 -1290 -44 -405 -47 -545 -14 -709 38 -190 191 -398 332 -451 88 -33 188 -25 287 23 206 102 372 419 408 778 12 116 12 117 -17 205 -24 73 -37 96 -73 131 -44 43 -116 74 -131 57 -4 -5 -20 -43 -35 -84 -15 -41 -48 -129 -74 -195 l-48 -120 -37 -3 c-75 -6 -188 81 -241 187 -47 93 -56 155 -56 416 0 354 10 451 121 1225 80 558 120 882 111 892 -4 4 -12 4 -19 0z" fill="#FFFFFF"></path> <path data-v-15251c40="" d="M20683 5262 c-14 -9 -94 -195 -228 -533 l-94 -237 -31 -218 c-66 -483 -188 -1534 -197 -1704 -9 -189 36 -417 117 -586 30 -62 54 -95 103 -140 80 -75 149 -104 268 -111 198 -12 349 80 529 322 110 148 220 258 283 285 47 21 62 22 159 16 84 -5 116 -3 143 8 49 21 132 102 196 191 36 51 60 75 74 75 38 0 122 48 172 98 91 91 187 254 231 392 55 170 55 348 0 327 -9 -3 -33 -50 -54 -104 -53 -140 -78 -185 -120 -222 -35 -31 -40 -33 -107 -29 l-70 3 -18 -63 c-10 -34 -27 -77 -38 -96 -27 -43 -113 -124 -146 -136 -15 -6 -86 -10 -159 -10 -130 0 -133 -1 -177 -29 -24 -17 -87 -67 -139 -113 -52 -46 -109 -93 -126 -105 -87 -62 -253 -92 -395 -73 -197 26 -311 134 -365 347 -21 85 -24 117 -24 292 0 328 18 506 125 1252 71 490 115 832 115 885 0 25 -7 29 -27 16z" fill="#FFFFFF"></path> <path data-v-15251c40="" d="M2233 5128 c-104 -153 -333 -616 -333 -671 0 -28 71 -99 233 -231 140 -113 167 -129 199 -117 37 14 125 98 174 166 84 119 164 315 164 405 0 46 -22 124 -47 175 -35 68 -277 284 -349 312 -7 2 -25 -15 -41 -39z" fill="#FFFFFF"></path> <path data-v-15251c40="" d="M3031 5148 c-105 -168 -171 -288 -253 -467 -116 -250 -115 -238 -9 -329 115 -99 271 -223 298 -237 37 -20 67 -5 146 73 80 78 140 171 194 297 36 85 38 96 38 195 0 138 -17 174 -139 295 -82 80 -230 195 -253 195 -4 0 -15 -10 -22 -22z" fill="#FFFFFF"></path> <path data-v-15251c40="" d="M11148 4963 c-15 -16 -56 -81 -93 -146 -36 -64 -77 -125 -91 -133 -18 -13 -38 -15 -91 -9 -50 4 -72 3 -84 -7 -9 -7 -44 -55 -78 -106 -80 -120 -150 -171 -278 -204 -60 -15 -101 -1 -188 63 -127 94 -185 107 -306 69 -176 -54 -516 -277 -685 -447 -92 -93 -301 -370 -384 -510 -141 -236 -260 -579 -260 -748 0 -111 62 -227 154 -289 28 -19 132 -67 231 -107 216 -86 261 -108 299 -145 60 -60 70 -134 35 -250 -49 -160 -160 -324 -340 -500 -248 -241 -434 -338 -799 -415 -148 -32 -164 -33 -370 -33 -223 0 -413 18 -520 50 -103 30 -293 129 -354 185 -146 133 -253 355 -272 561 -13 155 34 446 112 690 60 184 125 344 279 683 226 499 258 581 271 694 7 68 -5 85 -37 49 -35 -39 -530 -1032 -603 -1208 -134 -327 -186 -509 -251 -893 -76 -448 -67 -746 32 -1062 42 -133 97 -228 191 -326 191 -201 417 -298 736 -318 313 -20 620 40 883 172 337 170 642 445 856 772 87 134 175 304 232 450 26 66 66 170 90 230 115 290 195 827 156 1050 -30 169 -123 264 -378 386 -162 78 -223 125 -223 173 0 79 111 236 237 337 143 114 386 242 490 259 66 11 90 8 223 -27 103 -28 191 -33 255 -15 56 16 148 74 256 161 89 71 94 74 161 81 99 11 180 54 267 141 125 125 240 323 281 485 31 119 26 184 -14 184 -1 0 -14 -12 -28 -27z" fill="#FFFFFF"></path> <path data-v-15251c40="" d="M17174 3877 c-141 -253 -203 -386 -254 -541 -49 -151 -52 -166 -60 -310 -5 -83 -12 -281 -15 -441 -4 -159 -13 -324 -20 -365 -13 -79 -87 -257 -146 -356 -67 -110 -225 -312 -313 -399 -135 -134 -280 -238 -421 -305 -246 -116 -345 -139 -638 -147 -290 -8 -430 13 -582 89 -193 97 -311 232 -365 418 -31 106 -39 348 -15 475 22 120 110 348 271 709 142 318 187 453 164 496 -6 12 -19 20 -27 18 -33 -6 -125 -161 -321 -538 -194 -374 -247 -512 -332 -865 -57 -235 -72 -349 -72 -550 0 -196 16 -300 66 -448 79 -230 265 -443 462 -527 269 -116 640 -114 974 5 111 40 312 146 420 223 54 38 168 139 267 235 193 190 280 303 453 589 213 352 317 627 404 1058 8 41 26 125 40 185 42 184 55 272 66 455 17 287 41 526 66 677 13 78 24 157 24 175 0 32 -23 78 -38 78 -4 0 -30 -42 -58 -93z" fill="#FFFFFF"></path> <path data-v-15251c40="" d="M11153 3874 c-27 -12 -58 -87 -157 -385 -199 -599 -219 -651 -277 -744 -133 -213 -302 -387 -624 -644 -268 -213 -340 -280 -366 -338 -35 -75 -7 -92 124 -73 203 29 486 131 657 236 183 113 301 286 445 654 87 224 210 768 254 1129 10 78 9 88 -10 128 -21 43 -24 46 -46 37z" fill="#FFFFFF"></path> <path data-v-15251c40="" d="M12277 3844 c-14 -20 -38 -75 -53 -123 -45 -144 -199 -598 -248 -731 -57 -155 -74 -190 -157 -315 -137 -207 -339 -402 -689 -665 -100 -75 -236 -204 -256 -242 -21 -40 -17 -67 11 -80 29 -13 152 1 285 34 119 29 409 153 507 216 82 53 184 152 227 220 51 82 157 304 201 422 62 170 143 498 204 830 67 365 69 386 39 429 -32 47 -43 48 -71 5z" fill="#FFFFFF"></path> <path data-v-15251c40="" d="M19891 3784 c-11 -14 -27 -51 -36 -82 -32 -109 -273 -818 -304 -890 -16 -39 -65 -125 -107 -190 -105 -161 -314 -367 -609 -604 -310 -249 -376 -321 -344 -380 10 -19 17 -20 83 -14 174 15 522 135 711 245 116 67 211 167 273 289 69 134 138 289 179 401 77 214 238 958 245 1136 3 99 -45 147 -91 89z" fill="#FFFFFF"></path> <path data-v-15251c40="" d="M1447 3529 c-26 -15 -52 -73 -81 -179 -14 -52 -40 -131 -57 -175 -17 -44 -69 -192 -115 -330 -47 -137 -104 -290 -128 -340 -131 -270 -354 -512 -734 -797 -185 -139 -296 -242 -318 -294 -28 -68 4 -83 143 -65 135 18 256 53 415 121 259 111 384 201 476 343 55 85 156 297 206 430 62 168 189 698 232 967 30 192 31 254 4 298 -11 17 -21 32 -22 32 -2 0 -11 -5 -21 -11z" fill="#FFFFFF"></path> <path data-v-15251c40="" d="M15666 3358 c-47 -79 -128 -237 -181 -352 -111 -244 -111 -233 -11 -320 115 -100 290 -238 314 -247 35 -13 68 8 159 105 62 65 91 106 126 178 94 191 111 301 66 423 -18 50 -38 76 -118 155 -92 92 -231 200 -257 200 -7 0 -51 -64 -98 -142z" fill="#FFFFFF"></path> <path data-v-15251c40="" d="M12922 1122 c-79 -112 -175 -291 -282 -527 l-72 -159 18 -34 c17 -31 223 -211 333 -290 71 -52 90 -46 191 55 70 72 95 106 137 188 77 151 96 220 91 320 -6 118 -34 170 -153 284 -53 50 -129 113 -170 141 l-74 50 -19 -28z" fill="#FFFFFF"></path></g></svg>